<?xml version="1.0" standalone="no"?>
<!DOCTYPE svg PUBLIC "-//W3C//DTD SVG 20010904//EN"
 "http://www.w3.org/TR/2001/REC-SVG-20010904/DTD/svg10.dtd">
<svg version="1.0" xmlns="http://www.w3.org/2000/svg"
 width="662.000000pt" height="601.000000pt" viewBox="0 0 662.000000 601.000000"
 preserveAspectRatio="xMidYMid meet">
<metadata>
Created by potrace 1.16, written by Peter Selinger 2001-2019
</metadata>
<g transform="translate(0.000000,601.000000) scale(0.100000,-0.100000)"
fill="#000000" stroke="none">
<path d="M0 3005 l0 -3005 3310 0 3310 0 0 3005 0 3005 -3310 0 -3310 0 0
-3005z m3300 2285 c0 -5 -4 -10 -10 -10 -5 0 -10 5 -10 10 0 6 5 10 10 10 6 0
10 -4 10 -10z m-238 -37 c2 -26 8 -38 18 -38 10 0 16 12 18 38 2 20 8 37 13
37 18 0 6 -82 -13 -94 -29 -18 -53 4 -56 53 -2 22 1 41 7 41 5 0 11 -17 13
-37z m198 16 c11 -8 12 -12 3 -16 -15 -6 -17 -43 -3 -43 6 0 10 -4 10 -10 0
-5 -9 -10 -19 -10 -14 0 -20 9 -24 38 -6 52 2 63 33 41z m2506 -10 l19 -21 18
23 c9 12 20 19 24 15 3 -3 -2 -15 -12 -26 -17 -19 -17 -21 0 -40 10 -11 15
-23 12 -26 -4 -4 -15 3 -24 15 l-18 23 -19 -21 c-11 -12 -24 -21 -29 -21 -6 0
-3 8 6 18 10 10 17 25 17 32 0 7 -7 22 -17 32 -9 10 -12 18 -6 18 5 0 18 -9
29 -21z m-2561 -10 c9 -29 -4 -59 -26 -59 -10 0 -19 -7 -19 -15 0 -8 -4 -15
-10 -15 -5 0 -10 24 -10 53 0 53 1 54 30 55 20 0 31 -5 35 -19z m95 -19 c0
-22 -4 -40 -10 -40 -5 0 -10 18 -10 40 0 22 5 40 10 40 6 0 10 -18 10 -40z
m128 -2 c2 -22 -1 -38 -7 -38 -6 0 -11 14 -11 30 0 17 -4 30 -10 30 -5 0 -10
-13 -10 -30 0 -16 -4 -30 -10 -30 -5 0 -10 14 -10 31 0 38 -24 35 -28 -4 -5
-41 -22 -32 -22 12 l0 39 53 -2 52 -1 3 -37z m80 30 c19 -19 14 -28 -13 -28
-14 0 -25 -4 -25 -10 0 -5 9 -10 20 -10 11 0 20 -5 20 -11 0 -6 -12 -9 -27 -7
-29 3 -41 32 -29 64 7 17 38 18 54 2z m72 2 c0 -4 -7 -10 -15 -14 -8 -3 -15
-17 -15 -31 0 -14 -4 -25 -10 -25 -5 0 -10 17 -10 39 0 34 3 39 25 39 14 0 25
-4 25 -8z m1493 -25 l32 30 -32 -35 -33 -35 -32 35 -33 35 33 -30 32 -29 33
29z m373 -7 l29 -33 -32 29 -33 30 -32 -30 -33 -29 29 33 c17 17 33 32 36 32
3 0 19 -15 36 -32z m-1496 -403 c0 -20 10 -19 26 2 20 28 27 8 10 -26 -9 -16
-16 -37 -16 -46 0 -8 -4 -15 -10 -15 -5 0 -10 9 -10 20 0 12 -7 34 -15 50 -14
27 -14 30 0 30 8 0 15 -7 15 -15z m-2957 -37 c17 -2 22 -10 22 -33 0 -25 -4
-30 -27 -33 -28 -3 -28 -2 -27 50 1 29 3 45 6 36 2 -9 14 -18 26 -20z m54 -45
c-2 -16 -4 -3 -4 27 0 30 2 43 4 28 2 -16 2 -40 0 -55z m3021 55 c2 -13 -3
-18 -17 -18 -12 0 -21 -4 -21 -10 0 -5 9 -10 20 -10 11 0 20 -4 20 -10 0 -14
-43 -13 -58 2 -27 27 -4 71 33 66 11 -2 21 -11 23 -20z m80 -20 c3 -35 2 -36
-30 -35 -26 2 -33 6 -33 22 0 12 9 22 25 26 24 7 24 7 3 8 -13 1 -23 6 -23 12
0 6 12 9 28 7 23 -3 27 -8 30 -40z m122 32 c0 -6 -5 -10 -12 -10 -6 0 -4 -8 6
-19 10 -11 15 -25 11 -30 -8 -14 -55 -14 -55 -1 0 6 8 10 17 10 14 0 13 3 -5
21 -26 24 -42 18 -42 -17 0 -13 -4 -24 -10 -24 -5 0 -10 17 -10 38 l0 38 50 1
c28 1 50 -2 50 -7z m-3403 -12 c-9 -7 -18 -29 -20 -48 -4 -34 -4 -33 -5 7 -2
30 -7 43 -19 46 -10 3 0 5 21 6 34 1 37 -1 23 -11z m2663 -13 c34 -25 34 -25
8 -25 -14 0 -28 -7 -32 -15 -11 -29 -26 -15 -26 25 0 22 4 40 8 40 4 0 23 -11
42 -25z m1390 0 c34 -25 34 -25 8 -25 -14 0 -28 -7 -32 -15 -11 -29 -26 -15
-26 25 0 22 4 40 8 40 4 0 23 -11 42 -25z m-483 -12 l-27 -28 -27 28 -28 27
55 0 55 0 -28 -27z m-3499 -20 c3 -31 1 -33 -27 -33 -36 0 -44 28 -11 37 25 7
26 20 3 27 -11 3 -7 4 7 3 20 -2 26 -8 28 -34z m190 15 c2 -13 -3 -18 -17 -18
-28 0 -27 -17 2 -23 20 -4 19 -4 -4 -6 -30 -1 -43 20 -33 51 7 24 47 21 52 -4z
m1867 -358 c0 -39 -3 -45 -22 -48 -16 -2 -26 4 -35 22 -16 37 3 79 35 74 19
-3 22 -9 22 -48z m65 0 c0 -27 -4 -50 -10 -50 -5 0 -10 16 -10 36 0 21 -4 33
-10 29 -14 -9 -13 8 2 23 22 22 28 13 28 -38z m125 0 c0 -39 -3 -45 -22 -48
-16 -2 -26 4 -35 22 -16 37 3 79 35 74 19 -3 22 -9 22 -48z m65 0 c0 -27 -4
-50 -10 -50 -5 0 -10 16 -10 36 0 21 -4 33 -10 29 -14 -9 -13 8 2 23 22 22 28
13 28 -38z m125 0 c0 -39 -3 -45 -22 -48 -16 -2 -26 4 -35 22 -16 37 3 79 35
74 19 -3 22 -9 22 -48z m65 0 c0 -27 -4 -50 -10 -50 -5 0 -10 16 -10 36 0 21
-4 33 -10 29 -14 -9 -13 8 2 23 22 22 28 13 28 -38z m1575 0 c0 -39 -3 -45
-22 -48 -16 -2 -26 4 -35 22 -16 37 3 79 35 74 19 -3 22 -9 22 -48z m81 35 c4
-8 -1 -26 -10 -40 -14 -22 -15 -25 -1 -25 8 0 15 -4 15 -10 0 -5 -16 -10 -35
-10 -40 0 -44 9 -15 35 23 21 27 50 5 42 -15 -7 -29 6 -18 17 12 12 54 6 59
-9z m109 -35 c0 -39 -3 -45 -22 -48 -16 -2 -26 4 -35 22 -16 37 3 79 35 74 19
-3 22 -9 22 -48z m81 35 c4 -8 -1 -26 -10 -40 -14 -22 -15 -25 -1 -25 8 0 15
-4 15 -10 0 -5 -16 -10 -35 -10 -40 0 -44 9 -15 35 23 21 27 50 5 42 -15 -7
-29 6 -18 17 12 12 54 6 59 -9z m109 -35 c0 -39 -3 -45 -22 -48 -16 -2 -26 4
-35 22 -16 37 3 79 35 74 19 -3 22 -9 22 -48z m81 35 c4 -8 -1 -26 -10 -40
-14 -22 -15 -25 -1 -25 8 0 15 -4 15 -10 0 -5 -16 -10 -35 -10 -40 0 -44 9
-15 35 23 21 27 50 5 42 -15 -7 -29 6 -18 17 12 12 54 6 59 -9z m-4533 -37
c17 -2 23 -11 25 -35 2 -19 -1 -33 -7 -33 -6 0 -11 14 -11 31 0 39 -22 34 -31
-7 -5 -21 -7 -13 -7 26 0 30 2 47 5 38 2 -9 14 -18 26 -20z m-70 15 c-52 -10
-54 -60 -2 -74 l24 -7 -26 -1 c-30 -1 -49 16 -49 44 0 29 19 45 50 44 22 -2
22 -2 3 -6z m269 -21 c-16 -5 -15 -49 1 -55 7 -3 5 -6 -5 -6 -14 -1 -18 7 -18
30 0 24 -4 30 -17 27 -11 -2 -19 -14 -21 -31 -5 -39 -22 -33 -22 7 0 32 3 35
33 38 35 4 69 -3 49 -10z m-104 -30 c3 -31 2 -33 -25 -30 -34 4 -38 32 -5 36
12 2 22 7 22 12 0 5 -10 11 -22 13 -20 5 -20 5 2 4 21 -2 26 -8 28 -35z m160
31 c-22 -6 -23 -19 -3 -27 27 -10 18 -36 -12 -35 -24 2 -25 2 -5 6 24 5 31 23
8 23 -8 0 -18 5 -21 10 -10 16 4 30 28 29 17 -1 18 -2 5 -6z m1912 -33 c0 -5
-4 -10 -10 -10 -5 0 -10 5 -10 10 0 6 5 10 10 10 6 0 10 -4 10 -10z m190 0 c0
-5 -4 -10 -10 -10 -5 0 -10 5 -10 10 0 6 5 10 10 10 6 0 10 -4 10 -10z m1830
0 c0 -5 -4 -10 -10 -10 -5 0 -10 5 -10 10 0 6 5 10 10 10 6 0 10 -4 10 -10z
m190 0 c0 -5 -4 -10 -10 -10 -5 0 -10 5 -10 10 0 6 5 10 10 10 6 0 10 -4 10
-10z m-4470 -331 l-24 -10 29 -23 c33 -26 27 -47 -13 -45 -24 2 -24 2 -4 6 24
5 31 33 8 33 -8 0 -18 5 -21 10 -12 19 4 40 27 39 23 0 23 0 -2 -10z m142 -17
c-16 -5 -15 -49 1 -55 7 -4 6 -6 -4 -6 -12 -1 -18 9 -21 34 -5 41 -2 46 20 37
10 -4 12 -7 4 -10z m50 0 c-16 -5 -15 -49 1 -55 7 -4 6 -6 -4 -6 -12 -1 -18 9
-21 34 -5 41 -2 46 20 37 10 -4 12 -7 4 -10z m-94 -14 c3 -14 -3 -18 -24 -18
-30 0 -23 -14 11 -23 12 -3 8 -5 -10 -4 -31 2 -43 23 -31 53 8 21 50 14 54 -8z
m129 -30 c-2 -13 -4 -5 -4 17 -1 22 1 32 4 23 2 -10 2 -28 0 -40z m80 12 c1
-33 1 -33 -5 -6 -10 41 -29 43 -41 4 l-9 -33 -1 36 c-1 33 1 36 27 35 24 -1
27 -5 29 -36z m81 -7 c-3 -43 -6 -48 -28 -50 l-25 -3 25 11 25 12 -25 6 c-44
12 -39 71 5 71 25 0 26 -2 23 -47z m53 40 l-25 -5 25 -18 c18 -14 21 -22 13
-30 -7 -7 -20 -10 -30 -7 -14 4 -13 5 6 6 l25 1 -24 19 c-27 21 -21 42 12 40
20 -2 20 -2 -2 -6z m-348 -375 c17 -2 22 -10 22 -33 0 -25 -4 -30 -27 -33 -28
-3 -28 -2 -27 50 1 29 3 45 6 36 2 -9 14 -18 26 -20z m-68 -14 c17 -41 20 -68
4 -41 -12 21 -49 23 -49 2 0 -8 -4 -15 -10 -15 -5 0 -2 20 8 45 9 25 20 45 24
45 4 0 15 -16 23 -36z m305 16 c10 -6 11 -10 3 -10 -7 0 -13 -11 -13 -24 0
-13 6 -27 13 -30 6 -3 3 -5 -8 -3 -13 1 -21 13 -26 34 -8 43 1 53 31 33z
m-135 -35 c0 -35 -31 -47 -51 -20 -18 25 0 57 29 53 17 -2 22 -10 22 -33z m50
-25 c8 0 19 15 24 33 l9 32 1 -38 c1 -36 -1 -38 -26 -35 -24 2 -28 8 -30 36
-3 32 -3 32 3 2 3 -16 12 -30 19 -30z m1525 40 c-13 -9 -13 -11 0 -20 10 -6
11 -10 3 -10 -8 0 -13 -13 -13 -30 0 -42 -17 -38 -22 5 -5 41 6 65 30 65 15 0
15 -2 2 -10z m212 1 c-7 -4 -12 -12 -11 -17 4 -25 -2 -74 -10 -74 -12 0 -19
66 -8 85 4 8 16 15 25 15 13 0 14 -2 4 -9z m2483 -26 c16 0 20 -7 22 -35 1
-34 1 -34 -5 -5 -4 17 -14 30 -22 30 -8 0 -18 -13 -21 -30 -5 -22 -7 -16 -7
25 0 31 3 46 6 35 4 -11 16 -20 27 -20z m-60 -20 c0 -37 -2 -40 -30 -42 -20
-1 -23 0 -7 4 26 5 30 32 5 34 -17 1 -17 2 0 6 9 2 17 11 17 20 0 10 -6 14
-20 10 -11 -3 -20 -1 -20 5 0 5 12 8 28 6 24 -3 27 -7 27 -43z m178 38 c-29
-5 -30 -19 -2 -26 32 -9 22 -51 -13 -55 -16 -2 -28 1 -28 6 0 5 10 8 23 8 13
-1 22 5 22 14 0 8 -10 16 -22 18 -15 2 -23 10 -23 23 0 15 7 19 33 18 23 -1
26 -3 10 -6z m70 -3 c-13 -5 -23 -13 -23 -18 0 -5 10 -8 23 -8 17 1 22 -5 22
-24 0 -20 -5 -25 -25 -25 -20 0 -26 6 -28 28 -4 32 13 57 37 56 11 0 9 -3 -6
-9z m-2856 -62 c-2 -13 -4 -5 -4 17 -1 22 1 32 4 23 2 -10 2 -28 0 -40z m55
43 c-7 -4 -17 -21 -22 -37 l-8 -29 -1 35 c-1 30 3 36 21 37 15 2 18 -1 10 -6z
m76 -13 c3 -14 -3 -18 -24 -18 -30 0 -23 -14 11 -23 12 -3 8 -5 -10 -4 -31 2
-43 23 -31 53 8 21 50 14 54 -8z m123 6 c17 -21 0 -49 -32 -49 -24 0 -36 23
-25 51 7 19 40 18 57 -2z m54 6 c3 5 10 10 16 10 5 0 4 -9 -3 -19 -9 -15 -9
-23 1 -35 8 -9 9 -16 3 -16 -6 0 -12 6 -15 13 -3 9 -7 9 -20 -2 -10 -8 -17 -9
-17 -3 0 6 5 14 10 17 7 4 6 14 -2 28 -10 19 -9 21 4 9 11 -9 18 -10 23 -2z
m2692 -30 c1 -33 1 -33 -5 -6 -10 41 -29 43 -41 4 l-9 -33 -1 33 c-1 40 -24
39 -29 -1 -5 -40 -22 -33 -22 8 l0 35 53 -2 c52 -3 52 -3 54 -38z m30 -12 c-2
-13 -4 -5 -4 17 -1 22 1 32 4 23 2 -10 2 -28 0 -40z m91 15 c2 -19 -1 -33 -7
-33 -6 0 -11 14 -11 31 0 38 -24 35 -28 -4 -5 -40 -22 -33 -22 9 0 34 1 35 33
32 28 -3 32 -7 35 -35z m-3081 -360 c-2 -16 -4 -3 -4 27 0 30 2 43 4 28 2 -16
2 -40 0 -55z m2628 42 c16 0 20 -7 22 -35 1 -34 1 -34 -5 -5 -4 17 -14 30 -22
30 -8 0 -18 -13 -21 -30 -5 -22 -7 -16 -7 25 0 31 3 46 6 35 4 -11 16 -20 27
-20z m-2672 -10 c18 -38 23 -71 6 -42 -5 9 -17 17 -26 17 -9 0 -22 -8 -29 -17
-10 -12 -8 -3 3 30 10 26 20 47 23 47 4 0 14 -16 23 -35z m2610 21 c3 -8 -3
-26 -14 -40 l-19 -25 22 -4 c17 -3 14 -5 -9 -6 -38 -1 -41 8 -13 34 26 24 26
49 0 42 -11 -3 -18 -1 -14 4 8 14 41 11 47 -5z m192 -31 c0 -37 -2 -40 -30
-42 -25 -2 -26 -1 -7 5 28 8 30 24 5 33 -17 7 -17 8 0 8 9 1 17 8 17 17 0 11
-6 15 -20 11 -11 -3 -17 -1 -14 5 3 5 16 8 27 6 18 -2 22 -10 22 -43z m80 35
c4 -6 2 -17 -5 -24 -8 -11 -8 -15 1 -18 22 -7 1 -40 -23 -36 -19 2 -23 10 -24
38 0 19 1 38 3 43 6 11 41 9 48 -3z m-2563 -18 c-15 -5 -16 -48 -2 -55 6 -3 5
-4 -2 -3 -12 2 -30 61 -21 70 3 3 12 2 21 -2 10 -4 12 -7 4 -10z m50 0 c-16
-5 -15 -49 1 -55 7 -4 6 -6 -4 -6 -12 -1 -18 9 -21 34 -5 41 -2 46 20 37 10
-4 12 -7 4 -10z m-252 -27 c0 -31 -3 -35 -25 -35 -31 0 -34 29 -5 37 25 7 26
20 3 26 -14 4 -12 5 5 6 19 1 22 -4 22 -34z m58 28 c-21 -5 -25 -49 -5 -56 8
-3 7 -4 -2 -3 -8 1 -19 8 -24 18 -13 20 7 49 32 47 13 -1 13 -2 -1 -6z m59 -6
c-9 -7 -18 -23 -20 -37 -3 -19 -5 -17 -6 10 -1 30 3 36 20 37 19 2 19 0 6 -10z
m43 -22 c0 -19 -4 -35 -10 -35 -5 0 -10 16 -10 35 0 19 5 35 10 35 6 0 10 -16
10 -35z m140 -5 c4 0 10 10 13 22 4 12 9 19 12 16 10 -9 -32 -98 -46 -98 -8 0
-8 4 1 15 10 12 10 21 1 41 -14 32 -13 57 1 27 6 -13 14 -23 18 -23z m2587 0
c1 -34 1 -34 -5 -5 -4 17 -14 30 -22 30 -8 0 -18 -13 -21 -30 l-7 -30 -1 33
c-1 21 -6 32 -15 32 -9 0 -16 -13 -19 -32 -4 -32 -4 -32 -5 5 l-2 37 48 -2
c46 -3 47 -4 49 -38z m30 -12 c-2 -13 -4 -5 -4 17 -1 22 1 32 4 23 2 -10 2
-28 0 -40z m91 15 c2 -19 -1 -33 -7 -33 -6 0 -11 14 -11 31 0 39 -22 34 -31
-7 -6 -27 -7 -26 -8 9 -1 36 1 38 27 35 22 -2 28 -8 30 -35z m-453 -318 c16 0
20 -7 22 -35 1 -34 1 -34 -5 -5 -4 17 -14 30 -22 30 -8 0 -18 -13 -21 -30 -5
-22 -7 -16 -7 25 0 31 3 46 6 35 4 -11 16 -20 27 -20z m-1926 3 c16 -45 -13
-84 -44 -58 -28 24 -12 80 22 80 8 0 17 -10 22 -22z m1849 -25 c-1 -44 -2 -45
-5 -10 -2 20 -9 37 -14 37 -6 0 -7 5 -4 10 14 23 25 7 23 -37z m209 31 c3 -8
-4 -25 -17 -39 l-22 -23 24 -5 c18 -3 16 -5 -9 -6 -37 -1 -43 13 -13 29 27 15
27 54 0 47 -11 -3 -18 -1 -14 4 9 15 44 10 51 -7z m-2765 -12 c-16 -5 -15 -49
1 -55 7 -4 6 -6 -4 -6 -12 -1 -18 9 -21 34 -5 41 -2 46 20 37 10 -4 12 -7 4
-10z m-66 1 c-19 -5 -18 -6 4 -23 26 -20 19 -41 -13 -39 -17 1 -18 2 -4 6 21
6 22 19 2 27 -24 9 -18 36 8 35 19 -1 19 -2 3 -6z m142 -15 c3 -14 -3 -18 -24
-18 -30 0 -23 -14 11 -23 12 -3 8 -5 -10 -4 -31 2 -43 23 -31 53 8 21 50 14
54 -8z m70 -14 c3 -28 1 -31 -25 -30 -34 1 -39 29 -5 34 12 2 22 7 22 12 0 5
-10 11 -22 13 -20 5 -20 5 2 4 20 -2 26 -8 28 -33z m130 -2 c2 -18 -1 -32 -7
-32 -6 0 -11 14 -11 31 0 39 -23 34 -29 -7 l-4 -29 -6 29 c-8 41 -31 46 -31 7
0 -17 -4 -31 -10 -31 -5 0 -10 16 -10 35 l0 35 53 -3 c51 -2 52 -3 55 -35z
m130 2 c3 -28 1 -31 -25 -30 -35 1 -38 28 -3 37 l25 6 -25 12 -25 11 25 -3
c20 -2 26 -8 28 -33z m81 18 c12 -23 -4 -52 -29 -52 -10 0 -21 -8 -23 -17 -3
-10 -5 5 -6 32 -1 47 1 51 24 53 15 1 28 -5 34 -16z m81 3 c16 -19 6 -45 -20
-52 -11 -3 -20 -12 -20 -19 0 -8 -4 -14 -10 -14 -5 0 -10 23 -10 50 0 46 2 50
24 50 13 0 29 -7 36 -15z m2318 -23 c-1 -37 -1 -37 -5 -4 -3 19 -10 32 -19 32
-9 0 -14 -11 -15 -32 l-1 -33 -7 30 c-3 17 -13 30 -21 30 -8 0 -18 -13 -21
-30 l-7 -30 -1 35 -1 36 50 1 50 2 -2 -37z m39 -14 c-2 -13 -4 -5 -4 17 -1 22
1 32 4 23 2 -10 2 -28 0 -40z m80 12 c1 -34 1 -34 -5 -5 -4 17 -14 30 -22 30
-8 0 -18 -13 -21 -30 -7 -30 -7 -30 -8 6 -1 33 1 36 27 35 24 -1 27 -5 29 -36z
m-2669 -47 c-10 -2 -26 -2 -35 0 -10 3 -2 5 17 5 19 0 27 -2 18 -5z m295 0
c-7 -2 -21 -2 -30 0 -10 3 -4 5 12 5 17 0 24 -2 18 -5z m-690 -276 c19 16 20
16 8 0 -12 -15 -11 -20 4 -37 11 -12 13 -20 6 -20 -6 0 -14 7 -17 15 -8 20
-21 19 -27 -2 -3 -10 -4 7 -4 37 0 33 2 42 4 22 4 -34 5 -34 26 -15z m2630 18
c4 -8 1 -17 -5 -21 -7 -4 -6 -9 2 -14 22 -13 3 -40 -27 -39 -26 1 -26 1 -5 7
28 8 30 24 5 33 -17 7 -17 8 0 8 9 1 17 8 17 17 0 11 -6 15 -20 11 -11 -3 -20
-1 -20 4 0 15 47 10 53 -6z m80 -7 c16 -25 -7 -68 -35 -67 -23 0 -23 0 2 11
25 10 25 10 4 18 -30 12 -38 28 -23 46 15 18 38 15 52 -8z m330 15 c-25 -5
-32 -23 -9 -23 7 0 19 -7 26 -15 16 -20 -4 -46 -34 -44 -20 2 -20 2 2 6 29 6
31 43 2 43 -13 0 -20 7 -20 20 0 15 6 20 28 19 23 -2 24 -2 5 -6z m-2941 -21
c-16 -5 -15 -49 1 -55 7 -4 6 -6 -4 -6 -12 -1 -18 9 -21 34 -5 41 -2 46 20 37
10 -4 12 -7 4 -10z m85 -20 l6 -25 14 27 c23 44 25 23 4 -28 -13 -29 -27 -46
-38 -46 -16 0 -16 1 0 13 15 10 16 17 6 45 -6 17 -17 32 -25 32 -18 0 -19 -46
-1 -54 6 -3 3 -5 -8 -3 -20 2 -32 35 -22 61 9 23 56 7 64 -22z m-140 -24 c-2
-13 -4 -5 -4 17 -1 22 1 32 4 23 2 -10 2 -28 0 -40z m2791 14 c2 -18 -1 -32
-7 -32 -6 0 -11 14 -11 31 0 39 -23 34 -29 -7 l-4 -29 -6 29 c-8 41 -31 46
-31 7 0 -17 -4 -31 -10 -31 -5 0 -10 16 -10 35 l0 35 53 -3 c51 -2 52 -3 55
-35z m29 -14 c-2 -13 -4 -5 -4 17 -1 22 1 32 4 23 2 -10 2 -28 0 -40z m81 15
c-1 -37 -1 -37 -5 -5 -6 42 -33 44 -33 2 0 -16 -4 -30 -10 -30 -5 0 -10 16
-10 35 0 32 2 35 30 35 28 0 30 -2 28 -37z m170 30 c-10 -2 -18 -7 -18 -10 0
-3 8 -12 18 -19 21 -16 4 -38 -24 -31 -16 4 -15 5 4 6 27 1 29 17 2 26 -33 11
-23 36 14 34 17 -1 18 -2 4 -6z m-2761 -390 c-2 -16 -4 -3 -4 27 0 30 2 43 4
28 2 -16 2 -40 0 -55z m533 27 c0 -48 -1 -50 -29 -50 -18 0 -31 6 -35 16 -10
26 3 54 25 54 10 0 19 7 19 15 0 8 5 15 10 15 6 0 10 -22 10 -50z m183 8 c5 6
13 12 19 12 7 0 6 -5 -1 -14 -10 -11 -10 -20 0 -38 12 -23 12 -23 -9 -5 -20
18 -20 18 -25 0 -3 -10 -5 7 -5 37 0 41 2 47 7 25 4 -20 9 -26 14 -17z m1560
17 c4 -8 1 -17 -5 -21 -7 -4 -6 -9 2 -14 22 -13 3 -40 -27 -39 -26 1 -26 1 -5
7 28 8 30 24 5 33 -17 7 -17 8 0 8 9 1 17 8 17 17 0 11 -6 15 -20 11 -11 -3
-20 -1 -20 4 0 15 47 10 53 -6z m77 -11 c-16 -40 -31 -66 -37 -61 -2 3 3 19
11 36 21 39 21 39 -11 44 -23 3 -21 4 9 6 36 1 37 0 28 -25z m345 1 c1 -11 4
-25 8 -31 9 -16 -18 -37 -40 -31 -14 4 -13 5 5 6 26 1 31 31 5 31 -17 1 -17 1
0 11 23 14 22 33 -3 26 -11 -3 -20 -1 -20 5 0 5 10 8 23 6 14 -2 22 -10 22
-23z m84 3 c16 -45 -13 -84 -44 -58 -28 24 -12 80 22 80 8 0 17 -10 22 -22z
m-2887 -6 c-16 -5 -15 -49 1 -56 6 -3 3 -5 -8 -3 -12 1 -21 11 -23 25 -5 35 5
53 25 45 10 -4 12 -8 5 -11z m890 0 c-15 -5 -16 -48 -2 -55 6 -3 5 -4 -2 -3
-12 2 -30 61 -21 70 3 3 12 2 21 -2 10 -4 12 -7 4 -10z m-1117 -27 c0 -25 -4
-30 -25 -30 -16 0 -26 6 -28 18 -6 30 6 49 30 45 18 -2 23 -9 23 -33z m57 26
c-7 -4 -17 -21 -22 -37 l-8 -29 -1 35 c-1 30 3 36 21 37 15 2 18 -1 10 -6z
m88 -30 c0 -42 -19 -65 -47 -58 -14 4 -13 5 5 6 27 1 30 21 3 21 -24 0 -37 36
-21 55 7 8 23 15 36 15 21 0 24 -5 24 -39z m150 35 c0 -2 3 -11 6 -19 4 -11
-2 -17 -23 -19 l-28 -4 25 -12 25 -12 -25 3 c-40 4 -41 67 0 67 11 0 20 -2 20
-4z m110 0 c0 -2 3 -11 6 -19 4 -11 -2 -17 -23 -19 l-28 -4 25 -12 25 -12 -25
3 c-40 4 -41 67 0 67 11 0 20 -2 20 -4z m90 -35 c0 -42 -19 -65 -47 -58 -14 4
-13 5 5 6 27 1 30 21 3 21 -24 0 -37 36 -21 55 7 8 23 15 36 15 21 0 24 -5 24
-39z m47 26 c-9 -7 -18 -23 -20 -37 -3 -19 -5 -17 -6 10 -1 30 3 36 20 37 19
2 19 0 6 -10z m73 -22 c0 -31 -3 -35 -25 -35 -31 0 -34 29 -5 37 25 7 26 20 3
26 -14 4 -12 5 5 6 19 1 22 -4 22 -34z m127 -5 c1 -34 1 -34 -5 -5 -4 17 -14
30 -22 30 -8 0 -18 -13 -21 -30 l-7 -30 -1 33 c-1 21 -6 32 -15 32 -9 0 -16
-13 -19 -32 -4 -32 -4 -32 -5 5 l-2 37 48 -2 c46 -3 47 -4 49 -38z m191 28
c19 -19 14 -28 -13 -28 -31 0 -33 -20 -2 -21 19 -1 20 -2 3 -6 -27 -7 -49 23
-35 48 11 22 30 24 47 7z m53 5 l-25 -5 25 -18 c18 -14 21 -22 13 -30 -7 -7
-20 -10 -30 -7 -14 4 -13 5 6 6 l25 1 -24 19 c-27 21 -21 42 12 40 20 -2 20
-2 -2 -6z m213 -15 c8 -14 7 -21 -6 -34 -30 -30 -75 9 -48 42 16 18 39 15 54
-8z m81 -13 c0 -23 -5 -31 -22 -33 -12 -2 -24 -11 -26 -20 -3 -9 -5 7 -6 36
-1 52 -1 53 27 50 23 -3 27 -8 27 -33z m1533 -3 c2 -18 -1 -32 -7 -32 -6 0
-11 14 -11 31 0 39 -23 34 -29 -7 l-4 -29 -6 29 c-8 41 -31 46 -31 7 0 -17 -4
-31 -10 -31 -5 0 -10 16 -10 35 l0 35 53 -3 c51 -2 52 -3 55 -35z m29 -14 c-2
-13 -4 -5 -4 17 -1 22 1 32 4 23 2 -10 2 -28 0 -40z m81 15 c-1 -37 -1 -37 -5
-5 -6 42 -33 44 -33 2 0 -16 -4 -30 -10 -30 -5 0 -10 16 -10 35 0 32 2 35 30
35 28 0 30 -2 28 -37z m238 30 c-19 -5 -18 -6 4 -23 26 -20 19 -41 -13 -39
-17 1 -18 2 -4 6 21 6 22 19 2 27 -24 9 -18 36 8 35 19 -1 19 -2 3 -6z m-3165
-332 c-34 -9 -48 -35 -32 -55 8 -9 20 -16 27 -16 17 0 18 27 2 33 -7 3 -3 6
10 6 17 1 22 -5 22 -24 0 -21 -5 -25 -28 -25 -33 0 -52 16 -52 45 0 28 19 45
50 44 l25 -1 -24 -7z m2607 -3 c28 -28 7 -79 -32 -77 -19 0 -18 2 4 11 l25 10
-22 9 c-32 12 -30 59 2 59 6 0 16 -5 23 -12z m357 -33 c0 -36 -2 -40 -25 -40
-20 0 -26 6 -28 28 -5 42 5 59 30 55 20 -3 23 -9 23 -43z m-2887 -33 c9 2 20
17 23 33 6 29 7 28 8 -8 1 -36 -1 -38 -26 -35 -24 2 -28 8 -30 36 l-3 32 6
-31 c4 -21 10 -29 22 -27z m59 6 c-2 -13 -4 -5 -4 17 -1 22 1 32 4 23 2 -10 2
-28 0 -40z m2599 12 l2 -35 -5 33 c-6 42 -33 44 -33 2 0 -16 -4 -30 -10 -30
-5 0 -10 14 -10 31 0 39 -22 34 -31 -7 -6 -28 -7 -28 -8 7 l-1 36 48 -1 c47
-1 47 -1 48 -36z m31 -12 c-2 -13 -4 -5 -4 17 -1 22 1 32 4 23 2 -10 2 -28 0
-40z m91 15 c2 -19 -1 -33 -7 -33 -6 0 -11 14 -11 31 0 39 -22 34 -31 -7 -6
-27 -7 -26 -8 9 -1 36 1 38 27 35 22 -2 28 -8 30 -35z m160 30 c-22 -5 -24
-23 -3 -23 8 0 15 -9 15 -20 0 -14 -6 -20 -22 -19 -17 1 -19 2 -5 6 22 6 22
15 -3 31 -25 15 -17 32 13 31 17 -1 18 -2 5 -6z m-398 -328 c0 -13 -42 -86
-46 -82 -3 3 2 19 10 36 20 38 20 39 -6 44 -17 3 -14 5 10 6 17 0 32 -1 32 -4z
m347 -11 c3 -8 -4 -25 -17 -39 l-22 -23 24 -5 c18 -3 16 -5 -9 -6 -37 -1 -43
13 -13 29 27 15 27 54 0 47 -11 -3 -18 -1 -14 4 9 15 44 10 51 -7z m56 9 c-25
-5 -32 -23 -9 -23 7 0 19 -7 26 -15 16 -20 -4 -46 -34 -44 -20 2 -20 2 2 6 29
6 31 43 2 43 -13 0 -20 7 -20 20 0 15 6 20 28 19 23 -2 24 -2 5 -6z m-2981
-21 c-16 -5 -15 -49 1 -55 7 -4 6 -6 -4 -6 -12 -1 -18 9 -21 34 -5 41 -2 46
20 37 10 -4 12 -7 4 -10z m-66 1 c-19 -5 -18 -6 4 -23 26 -20 19 -41 -13 -39
-17 1 -18 2 -4 6 21 6 22 19 2 27 -24 9 -18 36 8 35 19 -1 19 -2 3 -6z m142
-15 c3 -14 -3 -18 -24 -18 -30 0 -23 -14 11 -23 12 -3 8 -5 -10 -4 -31 2 -43
23 -31 53 8 21 50 14 54 -8z m70 -14 c3 -28 1 -31 -25 -30 -34 1 -39 29 -5 34
12 2 22 7 22 12 0 5 -10 11 -22 13 -20 5 -20 5 2 4 20 -2 26 -8 28 -33z m130
-2 c2 -18 -1 -32 -7 -32 -6 0 -11 14 -11 31 0 39 -23 34 -29 -7 l-4 -29 -6 29
c-8 41 -31 46 -31 7 0 -17 -4 -31 -10 -31 -5 0 -10 16 -10 35 l0 35 53 -3 c51
-2 52 -3 55 -35z m2418 -2 l2 -35 -5 33 c-6 42 -33 44 -33 2 0 -16 -4 -30 -10
-30 -5 0 -10 14 -10 31 0 39 -22 34 -31 -7 -6 -28 -7 -28 -8 7 l-1 36 48 -1
c47 -1 47 -1 48 -36z m31 -12 c-2 -13 -4 -5 -4 17 -1 22 1 32 4 23 2 -10 2
-28 0 -40z m91 15 c2 -19 -1 -33 -7 -33 -6 0 -11 14 -11 31 0 39 -22 34 -31
-7 -6 -27 -7 -26 -8 9 -1 36 1 38 27 35 22 -2 28 -8 30 -35z m240 30 c-10 -2
-18 -7 -18 -10 0 -3 8 -12 18 -19 21 -16 4 -38 -24 -31 -16 4 -15 5 4 6 27 1
29 17 2 26 -33 11 -23 36 14 34 17 -1 18 -2 4 -6z m-2878 -340 c0 -21 3 -24
12 -15 18 18 33 15 17 -4 -10 -12 -10 -20 -1 -35 15 -24 4 -25 -14 -1 -13 16
-13 16 -14 0 0 -10 -4 -18 -10 -18 -5 0 -10 23 -10 50 0 28 5 50 10 50 6 0 10
-12 10 -27z m247 -50 c-2 -16 -4 -3 -4 27 0 30 2 43 4 28 2 -16 2 -40 0 -55z
m2126 57 c-13 -5 -23 -13 -23 -18 0 -5 10 -8 23 -8 17 1 22 -5 22 -24 0 -20
-5 -25 -25 -25 -20 0 -26 6 -28 28 -4 32 13 57 37 56 11 0 9 -3 -6 -9z m355
-37 c-1 -44 -2 -45 -5 -10 -2 20 -9 37 -14 37 -6 0 -7 5 -4 10 14 23 25 7 23
-37z m75 40 c-25 -5 -32 -23 -9 -23 7 0 19 -7 26 -15 16 -20 -4 -46 -34 -44
-20 2 -20 2 2 6 29 6 31 43 2 43 -13 0 -20 7 -20 20 0 15 6 20 28 19 23 -2 24
-2 5 -6z m-2301 -21 c-16 -5 -15 -49 1 -56 6 -3 3 -5 -8 -3 -12 1 -21 11 -23
25 -5 35 5 53 25 45 10 -4 12 -8 5 -11z m-717 -27 c0 -25 -4 -30 -25 -30 -16
0 -26 6 -28 18 -6 30 6 49 30 45 18 -2 23 -9 23 -33z m57 26 c-7 -4 -17 -21
-22 -37 l-8 -29 -1 35 c-1 30 3 36 21 37 15 2 18 -1 10 -6z m88 -30 c0 -42
-19 -65 -47 -58 -14 4 -13 5 5 6 27 1 30 21 3 21 -22 0 -34 25 -26 51 4 13 16
19 36 19 27 0 29 -3 29 -39z m140 9 c0 -42 27 -40 33 3 4 31 4 31 5 -6 2 -36
0 -38 -25 -35 -23 2 -29 8 -31 36 -2 18 1 32 7 32 6 0 11 -13 11 -30z m99 4
c7 16 14 27 16 24 7 -7 -15 -68 -24 -68 -9 0 -31 46 -30 63 0 7 7 -1 14 -18
l13 -30 11 29z m51 -9 c0 -19 -4 -35 -10 -35 -5 0 -10 16 -10 35 0 19 5 35 10
35 6 0 10 -16 10 -35z m115 -25 c8 0 19 15 24 33 l9 32 1 -38 c1 -36 -1 -38
-26 -35 -24 2 -28 8 -30 36 -3 32 -3 32 3 2 3 -16 12 -30 19 -30z m114 42 c12
-23 -4 -52 -29 -52 -10 0 -21 -8 -23 -17 -3 -10 -5 5 -6 32 -1 47 1 51 24 53
15 1 28 -5 34 -16z m78 -34 c-2 -13 -4 -5 -4 17 -1 22 1 32 4 23 2 -10 2 -28
0 -40z m130 12 c1 -33 1 -33 -5 -6 -10 41 -29 43 -41 4 l-9 -33 -1 33 c-1 21
-6 32 -15 32 -9 0 -16 -13 -19 -32 -4 -32 -4 -32 -5 5 l-2 37 48 -2 c46 -3 47
-4 49 -38z m81 18 c2 -12 -5 -18 -25 -20 l-28 -4 25 -12 25 -12 -25 3 c-25 2
-37 25 -26 53 8 20 50 14 54 -8z m49 9 c-9 -7 -18 -23 -20 -37 -3 -19 -5 -17
-6 10 -1 30 3 36 20 37 19 2 19 0 6 -10z m1729 -27 l2 -35 -5 33 c-6 42 -33
44 -33 2 0 -16 -4 -30 -10 -30 -5 0 -10 14 -10 31 0 39 -22 34 -31 -7 -6 -28
-7 -28 -8 7 l-1 36 48 -1 c47 -1 47 -1 48 -36z m31 -12 c-2 -13 -4 -5 -4 17
-1 22 1 32 4 23 2 -10 2 -28 0 -40z m91 15 c2 -19 -1 -33 -7 -33 -6 0 -11 14
-11 31 0 39 -22 34 -31 -7 -6 -27 -7 -26 -8 9 -1 36 1 38 27 35 22 -2 28 -8
30 -35z m240 30 c-22 -6 -23 -19 -3 -27 27 -10 18 -36 -12 -35 -24 2 -25 2 -5
6 24 5 31 23 8 23 -8 0 -18 5 -21 10 -10 16 4 30 28 29 17 -1 18 -2 5 -6z
m-2588 -53 c0 -5 -4 -10 -10 -10 -5 0 -10 5 -10 10 0 6 5 10 10 10 6 0 10 -4
10 -10z m-403 -337 c-2 -16 -4 -3 -4 27 0 30 2 43 4 28 2 -16 2 -40 0 -55z
m218 42 c16 0 20 -7 20 -30 0 -26 -4 -30 -27 -31 -27 -1 -28 1 -27 50 1 31 4
43 7 31 4 -11 16 -20 27 -20z m2287 -10 c2 -19 0 -41 -4 -48 -6 -9 -8 -9 -8 0
0 6 -11 13 -25 15 l-25 3 22 32 c13 18 26 33 29 33 4 0 9 -16 11 -35z m336
-12 c-1 -44 -2 -45 -5 -10 -2 20 -9 37 -14 37 -6 0 -7 5 -4 10 14 23 25 7 23
-37z m75 40 c-25 -5 -32 -23 -9 -23 7 0 19 -7 26 -15 16 -20 -4 -46 -34 -44
-20 2 -20 2 2 6 29 6 31 43 2 43 -13 0 -20 7 -20 20 0 15 6 20 28 19 23 -2 24
-2 5 -6z m-2831 -21 c-16 -5 -15 -49 1 -55 7 -4 6 -6 -4 -6 -12 -1 -18 9 -21
34 -5 41 -2 46 20 37 10 -4 12 -7 4 -10z m-216 1 c-19 -5 -18 -6 4 -23 26 -20
19 -41 -13 -39 -17 1 -18 2 -4 6 21 6 22 19 2 27 -24 9 -18 36 8 35 19 -1 19
-2 3 -6z m104 -43 c0 -27 -4 -50 -10 -50 -5 0 -10 7 -10 15 0 8 -9 15 -19 15
-24 0 -37 36 -21 55 7 8 23 15 36 15 22 0 24 -4 24 -50z m57 -2 c-2 -13 -4 -5
-4 17 -1 22 1 32 4 23 2 -10 2 -28 0 -40z m131 30 c3 -14 -3 -18 -24 -18 -30
0 -23 -14 11 -23 12 -3 8 -5 -10 -4 -31 2 -43 23 -31 53 8 21 50 14 54 -8z
m134 13 c-7 -4 -17 -21 -22 -37 l-8 -29 -1 35 c-1 30 3 36 21 37 15 2 18 -1
10 -6z m79 -7 c17 -21 0 -49 -32 -49 -24 0 -36 23 -25 51 7 19 40 18 57 -2z
m32 -6 l4 -23 8 23 c10 30 23 28 31 -4 l7 -27 13 29 14 29 -6 -35 c-4 -19 -8
-37 -10 -39 -7 -8 -24 12 -25 32 -1 20 -2 19 -12 -5 -14 -36 -23 -35 -36 3
-13 39 -13 39 -2 39 5 0 12 -10 14 -22z m125 15 c-10 -2 -18 -7 -18 -10 0 -3
8 -12 18 -19 21 -16 4 -38 -24 -31 -16 4 -15 5 4 6 27 1 29 17 2 26 -33 11
-23 36 14 34 17 -1 18 -2 4 -6z m82 3 c0 -2 3 -11 6 -19 4 -11 -2 -17 -23 -19
l-28 -4 25 -12 25 -12 -25 3 c-40 4 -41 67 0 67 11 0 20 -2 20 -4z m57 -9 c-9
-7 -18 -23 -20 -37 -3 -19 -5 -17 -6 10 -1 30 3 36 20 37 19 2 19 0 6 -10z
m1959 -27 l2 -35 -5 33 c-6 42 -33 44 -33 2 0 -16 -4 -30 -10 -30 -5 0 -10 14
-10 31 0 39 -22 34 -31 -7 -6 -28 -7 -28 -8 7 l-1 36 48 -1 c47 -1 47 -1 48
-36z m31 -12 c-2 -13 -4 -5 -4 17 -1 22 1 32 4 23 2 -10 2 -28 0 -40z m91 15
c2 -19 -1 -33 -7 -33 -6 0 -11 14 -11 31 0 39 -22 34 -31 -7 -6 -27 -7 -26 -8
9 -1 36 1 38 27 35 22 -2 28 -8 30 -35z m240 30 c-10 -2 -18 -7 -18 -10 0 -3
8 -12 18 -19 21 -16 4 -38 -24 -31 -16 4 -15 5 4 6 27 1 29 17 2 26 -33 11
-23 36 14 34 17 -1 18 -2 4 -6z"/>
<path d="M3160 5230 c0 -13 5 -20 13 -17 6 2 12 10 12 17 0 7 -6 15 -12 18 -8
2 -13 -5 -13 -18z"/>
<path d="M973 4764 c-8 -21 13 -42 28 -27 13 13 5 43 -11 43 -6 0 -13 -7 -17
-16z"/>
<path d="M4110 4770 c0 -5 5 -10 11 -10 5 0 7 5 4 10 -3 6 -8 10 -11 10 -2 0
-4 -4 -4 -10z"/>
<path d="M895 4740 c-3 -5 1 -10 9 -10 9 0 16 5 16 10 0 6 -4 10 -9 10 -6 0
-13 -4 -16 -10z"/>
<path d="M1090 4770 c0 -5 7 -10 16 -10 8 0 12 5 9 10 -3 6 -10 10 -16 10 -5
0 -9 -4 -9 -10z"/>
<path d="M2960 4410 c0 -16 5 -30 10 -30 6 0 10 14 10 30 0 17 -4 30 -10 30
-5 0 -10 -13 -10 -30z"/>
<path d="M3150 4410 c0 -16 5 -30 10 -30 6 0 10 14 10 30 0 17 -4 30 -10 30
-5 0 -10 -13 -10 -30z"/>
<path d="M3340 4410 c0 -16 5 -30 10 -30 6 0 10 14 10 30 0 17 -4 30 -10 30
-5 0 -10 -13 -10 -30z"/>
<path d="M4980 4410 c0 -16 5 -30 10 -30 6 0 10 14 10 30 0 17 -4 30 -10 30
-5 0 -10 -13 -10 -30z"/>
<path d="M5170 4410 c0 -16 5 -30 10 -30 6 0 10 14 10 30 0 17 -4 30 -10 30
-5 0 -10 -13 -10 -30z"/>
<path d="M5360 4410 c0 -16 5 -30 10 -30 6 0 10 14 10 30 0 17 -4 30 -10 30
-5 0 -10 -13 -10 -30z"/>
<path d="M1000 4360 c0 -5 4 -10 9 -10 6 0 13 5 16 10 3 6 -1 10 -9 10 -9 0
-16 -4 -16 -10z"/>
<path d="M905 4010 c-3 -5 3 -10 15 -10 12 0 18 5 15 10 -3 6 -10 10 -15 10
-5 0 -12 -4 -15 -10z"/>
<path d="M1193 4004 c-8 -21 13 -42 28 -27 13 13 5 43 -11 43 -6 0 -13 -7 -17
-16z"/>
<path d="M924 3625 c-9 -23 14 -45 26 -25 5 8 8 19 7 24 -6 17 -27 18 -33 1z"/>
<path d="M846 3635 c-3 -8 -1 -15 4 -15 6 0 10 7 10 15 0 8 -2 15 -4 15 -2 0
-6 -7 -10 -15z"/>
<path d="M1003 3624 c-8 -21 13 -42 28 -27 13 13 5 43 -11 43 -6 0 -13 -7 -17
-16z"/>
<path d="M5484 3579 c-10 -17 13 -36 27 -22 12 12 4 33 -11 33 -5 0 -12 -5
-16 -11z"/>
<path d="M2735 3590 c-3 -5 3 -10 15 -10 12 0 18 5 15 10 -3 6 -10 10 -15 10
-5 0 -12 -4 -15 -10z"/>
<path d="M2854 3586 c-7 -19 3 -36 22 -36 10 0 14 8 12 22 -4 26 -26 36 -34
14z"/>
<path d="M2616 3251 c-4 -7 -5 -15 -2 -18 9 -9 19 4 14 18 -4 11 -6 11 -12 0z"/>
<path d="M5482 3259 c2 -6 8 -10 13 -10 5 0 11 4 13 10 2 6 -4 11 -13 11 -9 0
-15 -5 -13 -11z"/>
<path d="M5480 3215 c0 -10 7 -15 18 -13 21 4 19 22 -2 26 -10 2 -16 -3 -16
-13z"/>
<path d="M2720 3210 c0 -5 7 -10 15 -10 8 0 15 5 15 10 0 6 -7 10 -15 10 -8 0
-15 -4 -15 -10z"/>
<path d="M3346 2902 c-8 -24 3 -54 18 -49 15 5 14 59 -1 64 -6 2 -14 -5 -17
-15z"/>
<path d="M2715 2890 c-3 -5 3 -10 15 -10 12 0 18 5 15 10 -3 6 -10 10 -15 10
-5 0 -12 -4 -15 -10z"/>
<path d="M2790 2860 c0 -5 4 -10 9 -10 6 0 13 5 16 10 3 6 -1 10 -9 10 -9 0
-16 -4 -16 -10z"/>
<path d="M3050 2860 c0 -5 4 -10 9 -10 6 0 13 5 16 10 3 6 -1 10 -9 10 -9 0
-16 -4 -16 -10z"/>
<path d="M3123 2884 c-8 -21 13 -42 28 -27 13 13 5 43 -11 43 -6 0 -13 -7 -17
-16z"/>
<path d="M3210 2875 c0 -16 6 -25 15 -25 9 0 15 9 15 25 0 16 -6 25 -15 25 -9
0 -15 -9 -15 -25z"/>
<path d="M5290 2550 c0 -11 7 -20 15 -20 8 0 15 9 15 20 0 11 -7 20 -15 20 -8
0 -15 -9 -15 -20z"/>
<path d="M3460 2175 c0 -16 6 -25 15 -25 9 0 15 9 15 25 0 16 -6 25 -15 25 -9
0 -15 -9 -15 -25z"/>
<path d="M5716 2202 c-8 -24 3 -54 18 -49 15 5 14 59 -1 64 -6 2 -14 -5 -17
-15z"/>
<path d="M2603 2184 c-8 -21 13 -42 28 -27 13 13 5 43 -11 43 -6 0 -13 -7 -17
-16z"/>
<path d="M2740 2175 c0 -16 6 -25 15 -25 9 0 15 9 15 25 0 16 -6 25 -15 25 -9
0 -15 -9 -15 -25z"/>
<path d="M2905 2190 c-3 -5 1 -10 9 -10 9 0 16 5 16 10 0 6 -4 10 -9 10 -6 0
-13 -4 -16 -10z"/>
<path d="M3015 2190 c-3 -5 1 -10 9 -10 9 0 16 5 16 10 0 6 -4 10 -9 10 -6 0
-13 -4 -16 -10z"/>
<path d="M3090 2175 c0 -16 6 -25 15 -25 9 0 15 9 15 25 0 16 -6 25 -15 25 -9
0 -15 -9 -15 -25z"/>
<path d="M3220 2160 c0 -5 7 -10 15 -10 8 0 15 5 15 10 0 6 -7 10 -15 10 -8 0
-15 -4 -15 -10z"/>
<path d="M3540 2190 c0 -5 7 -10 15 -10 8 0 15 5 15 10 0 6 -7 10 -15 10 -8 0
-15 -4 -15 -10z"/>
<path d="M3800 2175 c0 -26 24 -35 32 -12 7 18 -2 37 -18 37 -8 0 -14 -10 -14
-25z"/>
<path d="M3880 2175 c0 -20 4 -26 18 -23 9 2 17 12 17 23 0 11 -8 21 -17 23
-14 3 -18 -3 -18 -23z"/>
<path d="M5213 1855 c-7 -20 2 -29 21 -22 9 4 13 13 10 22 -8 19 -23 19 -31 0z"/>
<path d="M5564 1856 c-9 -23 0 -51 16 -51 10 0 15 10 15 29 0 32 -21 47 -31
22z"/>
<path d="M2715 1490 c-3 -5 3 -10 15 -10 12 0 18 5 15 10 -3 6 -10 10 -15 10
-5 0 -12 -4 -15 -10z"/>
<path d="M2790 1460 c0 -5 4 -10 9 -10 6 0 13 5 16 10 3 6 -1 10 -9 10 -9 0
-16 -4 -16 -10z"/>
<path d="M5214 1129 c-10 -17 13 -36 27 -22 12 12 4 33 -11 33 -5 0 -12 -5
-16 -11z"/>
<path d="M2603 1134 c-8 -21 13 -42 28 -27 13 13 5 43 -11 43 -6 0 -13 -7 -17
-16z"/>
<path d="M2740 1125 c0 -16 6 -25 15 -25 9 0 15 9 15 25 0 16 -6 25 -15 25 -9
0 -15 -9 -15 -25z"/>
<path d="M3267 1137 c-3 -8 -1 -20 4 -28 11 -19 34 3 26 25 -8 20 -23 21 -30
3z"/>
<path d="M3555 1140 c-3 -5 1 -10 9 -10 9 0 16 5 16 10 0 6 -4 10 -9 10 -6 0
-13 -4 -16 -10z"/>
<path d="M2943 784 c-8 -21 13 -42 28 -27 13 13 5 43 -11 43 -6 0 -13 -7 -17
-16z"/>
<path d="M5220 790 c-9 -16 -8 -20 5 -20 8 0 15 9 15 20 0 11 -2 20 -5 20 -2
0 -9 -9 -15 -20z"/>
<path d="M2670 775 c0 -16 6 -25 15 -25 9 0 15 9 15 25 0 16 -6 25 -15 25 -9
0 -15 -9 -15 -25z"/>
<path d="M2865 790 c-3 -5 3 -10 15 -10 12 0 18 5 15 10 -3 6 -10 10 -15 10
-5 0 -12 -4 -15 -10z"/>
<path d="M3074 785 c-7 -18 3 -35 22 -35 8 0 14 10 14 25 0 27 -27 35 -36 10z"/>
<path d="M3325 790 c-3 -5 1 -10 9 -10 9 0 16 5 16 10 0 6 -4 10 -9 10 -6 0
-13 -4 -16 -10z"/>
</g>
</svg>
